<?xml version="1.0" encoding="iso-8859-1"?>
<svg version="1.0" xmlns="http://www.w3.org/2000/svg"
	 width="422.000000pt" height="422.000000pt" viewBox="0 0 422.000000 422.000000"
	 preserveAspectRatio="xMidYMid meet">

	<g transform="translate(0.000000,422.000000) scale(0.100000,-0.100000)"
	   fill="#000000" stroke="none">
		<path d="M423 4176 c-181 -44 -334 -202 -372 -384 -16 -75 -16 -3269 0 -3344
39 -187 200 -348 387 -387 75 -16 3269 -16 3344 0 187 39 348 200 387 387 16
75 16 3269 0 3344 -39 187 -200 348 -387 387 -81 17 -3289 14 -3359 -3z m756
-1136 c211 -27 388 -115 541 -269 171 -172 260 -390 260 -634 0 -270 -90 -480
-287 -668 -171 -163 -386 -249 -623 -249 -383 0 -715 231 -859 599 -51 127
-67 353 -37 498 76 359 369 648 721 712 124 22 174 24 284 11z m2070 0 c211
-27 388 -115 541 -269 171 -172 260 -390 260 -634 0 -270 -90 -480 -287 -668
-171 -163 -386 -249 -623 -249 -383 0 -715 231 -859 599 -51 127 -67 353 -37
498 76 359 369 648 721 712 124 22 174 24 284 11z"/>
		<path d="M905 2804 c-33 -8 -98 -33 -144 -55 -67 -33 -102 -58 -171 -128 -138
-137 -197 -267 -207 -456 -9 -172 42 -329 152 -467 150 -190 412 -288 650
-245 258 47 459 222 542 472 23 70 27 97 27 210 0 117 -3 138 -28 210 -78 226
-274 408 -496 460 -81 18 -245 18 -325 -1z"/>
		<path d="M2975 2804 c-33 -8 -98 -33 -144 -55 -67 -33 -102 -58 -171 -128
-138 -137 -197 -267 -207 -456 -9 -172 42 -329 152 -467 150 -190 412 -288
650 -245 258 47 459 222 542 472 23 70 27 97 27 210 0 117 -3 138 -28 210 -78
226 -274 408 -496 460 -81 18 -245 18 -325 -1z"/>
	</g>
</svg>